<?xml version="1.0" encoding="UTF-8"?>
<svg id="katman_2" data-name="katman 2" xmlns="http://www.w3.org/2000/svg" viewBox="0 0 484.35 169.67">
  <defs>
    <style>
      .cls-1 {
        fill: #183641;
      }

      .cls-2 {
        fill: #4088b3;
      }

      .cls-3 {
        fill: #fff;
      }

      .cls-4 {
        fill: #4289b4;
      }
    </style>
  </defs>
  <g id="katman_1" data-name="katman 1">
    <g>
      <path class="cls-4" d="M346.55,88.94l-.04.02s.02-.02.02-.02h.02Z"/>
      <path class="cls-4" d="M302.15,125.07c-1.7.74-3.43,4.01-3.86,7.65l-1.68-5.45c.56-.22,1.12-.45,1.68-.67,1.3-.52,2.58-1.01,3.86-1.52Z"/>
      <g>
        <path class="cls-2" d="M49.33,44.21l-14.85,100.96-14.87-100.96H0l19.11,123.78h28.99l19.11-123.78h-17.87Z"/>
        <path class="cls-2" d="M129.25,61.88v-17.67h-53.06v123.78h53.06v-17.69h-33.59v-36.26h26.69v-17.67h-26.69v-34.49h33.59Z"/>
        <path class="cls-2" d="M185.47,44.21v74.09l-19.98-74.09h-24.4v123.78h17.51v-89.65l24.22,89.65h19.98V44.21h-17.33Z"/>
        <path class="cls-2" d="M271.09,136.42c-9.35,5.92-20.14,11.77-20.14,22.94l-.04-.18v8.81h-19.46v-13.66l.02.45c0-4.04,4.13-7.47,8.97-9.33l-.22.04c2.74-.72,5.47-1.46,8.18-2.24.85-.22,1.68-.45,2.51-.7,6.55-1.86,12.98-3.81,19.33-5.9l.85-.25Z"/>
        <path class="cls-2" d="M296.61,127.27l1.68,5.45v-6.12c-.56.22-1.12.45-1.68.67Z"/>
        <path class="cls-2" d="M314.08,103.36l-1.66.81s-.04.02-.07.02c-4.66,1.91-9.35,3.68-14.06,5.4-.04.04-.09.04-.13.07-1.05.38-2.11.76-3.16,1.14-6.5,2.06-15.16-.72-16.17-7.78v-58.82h19.46v53.98c1.01,7.04,8.39,7.87,15.79,5.18Z"/>
        <path class="cls-2" d="M342.33,106.25c-3.32,1.88-5.22,6.05-5.49,9.6v22.6c0,19.8-9.91,31.13-28.99,31.13-17.83,0-27.65-9.84-28.88-27.27l.04.27c0-5.45,3.21-9.98,8.39-11.82l-1.32.47c3.57-1.3,7.06-2.62,10.54-3.97l1.68,5.45v6.97c0,8.84,3.88,12.02,10.07,12.02s10.09-3.18,10.09-12.02v-16.28c0-3.09,2.04-5.96,5.67-7.96l-1.01.45c4.62-2.15,9.19-4.42,13.7-6.75h.02v-.02l5.49-2.87Z"/>
        <path class="cls-2" d="M346.5,88.96c-.56.27-1.12.56-1.7.83-2.4,1.17-4.8,2.31-7.22,3.43l-.74.36c-.09.04-.16.09-.25.11-1.75.83-3.5,1.64-5.25,2.38l-.34.16-.13.07c-.25.11-.49.2-.74.31-5.05,2.04-10.92,1.86-11.68-1.75v-50.66h18.39v42.74l.02-.45c0,3.99,5.74,3.18,9.64,2.47Z"/>
        <path class="cls-2" d="M415.03,49.48l-9.53,6.19c-.2.13-.4.25-.61.38l-1.28.83v-.02c-5.34,3.39-10.7,6.68-16.1,9.87-1.48-3.32-4.28-4.84-8.61-4.84h-9.37v8.34c0,.21.04.43.16.6,1.64,2.49,7.62,1.4,10.78.01.04-.02.09-.04.13-.07.25-.11.49-.22.7-.34l-5.22,2.92c-1.48.83-2.94,1.64-4.42,2.47l-2.13,1.19c-.09.04-.18.09-.27.16-2.87,1.57-5.7,3.09-8.59,4.62l-.07.04-.11.04c-4.55,2.13-9.93.83-10.4-4.13v-33.52h29.35c9.53,0,16.53,2.09,21.21,6.35,3.14,2.62,9.73,1.91,14.37-1.08Z"/>
        <path class="cls-2" d="M408.44,152.94c0,6.01.18,10.45,2.13,15.05h-19.8c-1.08-3.18-1.77-5.14-1.77-15.2v-19.46c0-11.5-3.9-15.74-12.74-15.74h-6.73v50.41h-19.44v-56.4c.2-5.29,3.41-10.99,9.26-15.14.07-.04.16-.09.22-.16,3.32-1.97,6.57-4.04,9.8-6.14.04-.04.11-.07.16-.11l3.03-2.02c-1.95,1.3-3.14,2.78-3,4.44l-.02-.29v7.74h7.62c7.24,0,11.66-3.18,11.66-13.1v-4.31c.47-4.62,2.69-8.25,7.13-11.8l-1.79,1.41c4.17-3.32,8.25-6.75,12.2-10.27.18-.16.38-.34.56-.52,0,0,.02,0,.02.02l15-12.94c-4.89,5.36-13.32,15.61-13.75,21.84v.07c.04.76.07,1.55.07,2.33v9.73c0,12.74-4.06,21.03-12.71,25.12,9.71,4.06,12.89,13.43,12.89,26.35v19.08Z"/>
        <path class="cls-2" d="M464.55,45.89h-.87l-.31,2.52c-.26,2.08-1.34,3.96-3,5.23l-7.04,5.37-1.77-13.12h-15.47l-19.8,123.78h17.85l3.36-22.47h23.88l3.36,22.47h19.62l-19.8-123.78ZM439.97,130.41l9.37-62.61,9.37,62.61h-18.75Z"/>
      </g>
      <path class="cls-2" d="M272.03,118.34c-.09.02-.18.07-.27.07l-20.61,5.61c-.07.02-.16.04-.25.07l-.25.07v-.02c-.61.16-1.21.31-1.82.45-8.95,1.91-16.64-.92-17.4-9.8v-52.9h-20.32v-17.67h60.12v17.67h-20.34v47.09c.74,8.95,15.18,10.56,21.12,9.37Z"/>
      <path class="cls-3" d="M346.53,88.94h.02l-.04.02s.02-.02.02-.02Z"/>
      <path class="cls-1" d="M454.67,55.42c-1.19-8.89-2.32-17.3-3.5-26.08-.87.68-1.57,1.21-2.25,1.77-5.16,4.24-10.8,7.62-17.13,9.81-2.15.74-4.07.67-6.04-.65-3.8-2.53-7.71-4.9-11.59-7.34,1.5-1.88,3.14-2.47,5.38-2.15,3.08.44,6.22.59,9.34.68.94.03,2.3-.43,3.03-1.02,11.06-8.93,22.07-17.93,33.07-26.93,3.03-2.48,6.49-3.66,10.35-3.5,3.09.13,4.69,2.61,3.3,5.38-.79,1.57-2.02,3.02-3.35,4.19-3.24,2.84-6.64,5.5-10.02,8.18-.93.74-1.42,1.52-1.55,2.78-.94,9.25-2.03,18.49-2.94,27.74-.19,1.9-1.28,3.54-2.86,4.61-.99.67-1.92,1.5-3.24,2.54Z"/>
    </g>
  </g>
</svg>