<?xml version="1.0" encoding="UTF-8"?>
<svg id="katman_2" data-name="katman 2" xmlns="http://www.w3.org/2000/svg" xmlns:xlink="http://www.w3.org/1999/xlink" viewBox="0 0 367.56 185.46">
  <defs>
    <style>
      .cls-1 {
        fill: url(#Adsız_degrade_283);
      }

      .cls-2 {
        fill: url(#Adsız_degrade_283-17);
      }

      .cls-3 {
        fill: url(#Adsız_degrade_283-16);
      }

      .cls-4 {
        fill: url(#Adsız_degrade_283-18);
      }

      .cls-5 {
        fill: url(#Adsız_degrade_283-15);
      }

      .cls-6 {
        fill: url(#Adsız_degrade_283-14);
      }

      .cls-7 {
        fill: url(#Adsız_degrade_283-13);
      }

      .cls-8 {
        fill: url(#Adsız_degrade_283-10);
      }

      .cls-9 {
        fill: url(#Adsız_degrade_283-11);
      }

      .cls-10 {
        fill: url(#Adsız_degrade_283-12);
      }

      .cls-11 {
        fill: url(#Adsız_degrade_283-7);
      }

      .cls-12 {
        fill: url(#Adsız_degrade_283-6);
      }

      .cls-13 {
        fill: url(#Adsız_degrade_283-2);
      }

      .cls-14 {
        fill: url(#Adsız_degrade_283-8);
      }

      .cls-15 {
        fill: url(#Adsız_degrade_283-9);
      }

      .cls-16 {
        fill: url(#Adsız_degrade_283-3);
      }

      .cls-17 {
        fill: url(#Adsız_degrade_283-4);
      }

      .cls-18 {
        fill: url(#Adsız_degrade_283-5);
      }

      .cls-19 {
        fill: #21244a;
      }
    </style>
    <linearGradient id="Adsız_degrade_283" data-name="Adsız degrade 283" x1="19.71" y1="185.23" x2="19.71" y2="162.79" gradientUnits="userSpaceOnUse">
      <stop offset=".49" stop-color="#283b65"/>
      <stop offset=".5" stop-color="#0092d2"/>
    </linearGradient>
    <linearGradient id="Adsız_degrade_283-2" data-name="Adsız degrade 283" x1="49.11" x2="49.11" y2="161.45" xlink:href="#Adsız_degrade_283"/>
    <linearGradient id="Adsız_degrade_283-3" data-name="Adsız degrade 283" x1="64.66" x2="64.66" y2="160.84" xlink:href="#Adsız_degrade_283"/>
    <linearGradient id="Adsız_degrade_283-4" data-name="Adsız degrade 283" x1="75.91" y1="185.46" x2="75.91" y2="164.33" xlink:href="#Adsız_degrade_283"/>
    <linearGradient id="Adsız_degrade_283-5" data-name="Adsız degrade 283" x1="102.68" x2="102.68" xlink:href="#Adsız_degrade_283"/>
    <linearGradient id="Adsız_degrade_283-6" data-name="Adsız degrade 283" x1="121.1" y1="185.46" x2="121.1" y2="167.92" xlink:href="#Adsız_degrade_283"/>
    <linearGradient id="Adsız_degrade_283-7" data-name="Adsız degrade 283" x1="141.78" y1="185.46" x2="141.78" y2="167.92" xlink:href="#Adsız_degrade_283"/>
    <linearGradient id="Adsız_degrade_283-8" data-name="Adsız degrade 283" x1="163.65" x2="163.65" y2="161.45" xlink:href="#Adsız_degrade_283"/>
    <linearGradient id="Adsız_degrade_283-9" data-name="Adsız degrade 283" x1="193.77" x2="193.77" xlink:href="#Adsız_degrade_283"/>
    <linearGradient id="Adsız_degrade_283-10" data-name="Adsız degrade 283" x1="211.74" x2="211.74" y2="167.92" xlink:href="#Adsız_degrade_283"/>
    <linearGradient id="Adsız_degrade_283-11" data-name="Adsız degrade 283" x1="227.64" y1="185.46" x2="227.64" y2="167.92" xlink:href="#Adsız_degrade_283"/>
    <linearGradient id="Adsız_degrade_283-12" data-name="Adsız degrade 283" x1="248.29" y1="185.46" x2="248.29" y2="161.45" xlink:href="#Adsız_degrade_283"/>
    <linearGradient id="Adsız_degrade_283-13" data-name="Adsız degrade 283" x1="270.86" y1="185.46" x2="270.86" y2="168.12" xlink:href="#Adsız_degrade_283"/>
    <linearGradient id="Adsız_degrade_283-14" data-name="Adsız degrade 283" x1="291.34" y1="185.46" x2="291.34" y2="167.92" xlink:href="#Adsız_degrade_283"/>
    <linearGradient id="Adsız_degrade_283-15" data-name="Adsız degrade 283" x1="307.33" y1="185.46" x2="307.33" y2="164.33" xlink:href="#Adsız_degrade_283"/>
    <linearGradient id="Adsız_degrade_283-16" data-name="Adsız degrade 283" x1="318.93" x2="318.93" y2="160.84" xlink:href="#Adsız_degrade_283"/>
    <linearGradient id="Adsız_degrade_283-17" data-name="Adsız degrade 283" x1="333.89" y1="185.46" x2="333.89" y2="167.92" xlink:href="#Adsız_degrade_283"/>
    <linearGradient id="Adsız_degrade_283-18" data-name="Adsız degrade 283" x1="355.29" x2="355.29" y2="167.92" xlink:href="#Adsız_degrade_283"/>
  </defs>
  <g id="katman_2-2" data-name="katman 2">
    <g>
      <g>
        <path class="cls-19" d="M244.51,128.27v10.32h-84.87v-24.83l1.24-3.13,26.71-67.67v67.67h39.28c9.74,0,17.63,7.9,17.63,17.63Z"/>
        <path class="cls-19" d="M187.7,19.14l-44.64,113.06c-2.03,5.1-6.73,8.38-11.86,8.8-.38.04-.77.05-1.15.05h-.13c-.38,0-.77-.02-1.15-.05-5.12-.42-9.82-3.7-11.86-8.8l-36.32-92.01c-2.84-7.17.68-15.29,7.87-18.13,1.68-.66,3.42-.99,5.12-.99,5.56,0,10.83,3.37,13.01,8.85l23.4,59.26,31.71-80.33c2.18-5.49,7.45-8.85,13.01-8.85,1.7,0,3.44.33,5.12.99,7.17,2.84,10.7,10.96,7.87,18.15Z"/>
        <path class="cls-19" d="M89.49,89.59l-11.53,29.2-5.29,13.41c-2.23,5.65-7.76,9.06-13.52,8.84h-.07c-5.74.18-11.21-3.2-13.45-8.84L.98,19.14C-1.86,11.95,1.67,3.82,8.85.99c1.68-.66,3.42-.99,5.12-.99,5.58,0,10.85,3.37,13.03,8.85l32.16,81.47,3.79-9.59,11.53-29.2,15.02,38.05Z"/>
        <path class="cls-19" d="M367.43,54.87c-1.83,25.16-23.47,44.3-48.69,44.3h-27.74c0-14.76,11.97-26.73,26.73-26.73h1.42c10.43,0,19.74-7.32,21.41-17.61,2.15-13.23-8.03-24.69-20.86-24.69h-38.04v88.88c0,10.8-8.76,19.56-19.56,19.56h-8.4V3.44h65.99c27.62,0,49.77,23.38,47.73,51.43Z"/>
      </g>
      <g>
        <g>
          <path class="cls-1" d="M37.18,162.79l-7.44,22.44h-4.42l-5.55-16.61-5.64,16.61h-4.46l-7.44-22.44h4.33l5.58,17.06,5.8-17.06h3.85l5.67,17.15,5.74-17.15h3.98Z"/>
          <path class="cls-13" d="M57.54,175.42v9.81h-4.01v-9.3c0-3.05-1.51-4.52-4.07-4.52-2.85,0-4.78,1.73-4.78,5.16v8.66h-4.01v-23.79h4.01v8.66c1.31-1.41,3.33-2.18,5.71-2.18,4.1,0,7.15,2.34,7.15,7.5Z"/>
          <path class="cls-16" d="M62.38,163.11c0-1.31.96-2.28,2.28-2.28s2.28.96,2.28,2.28-.96,2.28-2.28,2.28-2.28-.96-2.28-2.28ZM62.64,168.12h4.01v17.12h-4.01v-17.12Z"/>
          <path class="cls-17" d="M82.2,184.3c-.96.77-2.4,1.15-3.85,1.15-3.75,0-5.9-1.99-5.9-5.77v-8.24h-2.82v-3.21h2.82v-3.91h4.01v3.91h4.58v3.21h-4.58v8.14c0,1.67.83,2.56,2.37,2.56.83,0,1.63-.22,2.24-.71l1.12,2.85Z"/>
          <path class="cls-18" d="M94.73,162.79h4.17v18.92h11.73v3.53h-15.9v-22.44Z"/>
          <path class="cls-12" d="M111.98,176.67c0-5.13,3.85-8.75,9.1-8.75s9.14,3.62,9.14,8.75-3.81,8.78-9.14,8.78-9.1-3.66-9.1-8.78ZM126.18,176.67c0-3.27-2.18-5.35-5.1-5.35s-5.06,2.08-5.06,5.35,2.18,5.35,5.06,5.35,5.1-2.08,5.1-5.35Z"/>
          <path class="cls-11" d="M132.66,176.67c0-5.13,3.85-8.75,9.1-8.75s9.14,3.62,9.14,8.75-3.81,8.78-9.14,8.78-9.1-3.66-9.1-8.78ZM146.86,176.67c0-3.27-2.18-5.35-5.1-5.35s-5.06,2.08-5.06,5.35,2.18,5.35,5.06,5.35,5.1-2.08,5.1-5.35Z"/>
          <path class="cls-14" d="M161.74,177.89l-2.98,2.82v4.52h-4.01v-23.79h4.01v14.36l8.3-7.69h4.81l-7.15,7.18,7.82,9.94h-4.87l-5.93-7.34Z"/>
          <path class="cls-15" d="M203.16,170.78c0,4.94-3.65,7.98-9.55,7.98h-5.07v6.48h-4.17v-22.44h9.23c5.9,0,9.55,3.01,9.55,7.98ZM198.96,170.78c0-2.82-1.89-4.46-5.55-4.46h-4.87v8.91h4.87c3.66,0,5.55-1.64,5.55-4.46Z"/>
          <path class="cls-8" d="M216.69,167.92v3.81c-.35-.06-.64-.1-.93-.1-3.05,0-4.97,1.79-4.97,5.29v8.3h-4.01v-17.12h3.81v2.5c1.15-1.79,3.24-2.69,6.09-2.69Z"/>
          <path class="cls-9" d="M218.52,176.67c0-5.13,3.85-8.75,9.11-8.75s9.14,3.62,9.14,8.75-3.82,8.78-9.14,8.78-9.11-3.66-9.11-8.78ZM232.72,176.67c0-3.27-2.18-5.35-5.1-5.35s-5.07,2.08-5.07,5.35,2.18,5.35,5.07,5.35,5.1-2.08,5.1-5.35Z"/>
          <path class="cls-10" d="M257.37,161.45v23.79h-3.85v-2.21c-1.35,1.63-3.33,2.44-5.67,2.44-4.97,0-8.66-3.46-8.66-8.78s3.69-8.75,8.66-8.75c2.21,0,4.17.74,5.51,2.31v-8.78h4.01ZM253.43,176.67c0-3.27-2.21-5.35-5.1-5.35s-5.1,2.08-5.1,5.35,2.21,5.35,5.1,5.35,5.1-2.08,5.1-5.35Z"/>
          <path class="cls-7" d="M279.21,168.12v17.12h-3.81v-2.18c-1.28,1.57-3.3,2.4-5.51,2.4-4.39,0-7.37-2.4-7.37-7.57v-9.78h4.01v9.23c0,3.11,1.47,4.58,4.01,4.58,2.79,0,4.68-1.73,4.68-5.16v-8.66h4.01Z"/>
          <path class="cls-6" d="M283.06,176.67c0-5.13,3.85-8.75,9.27-8.75,3.33,0,6,1.38,7.31,3.98l-3.08,1.79c-1.03-1.63-2.56-2.37-4.26-2.37-2.95,0-5.19,2.05-5.19,5.35s2.24,5.35,5.19,5.35c1.7,0,3.24-.74,4.26-2.37l3.08,1.79c-1.31,2.57-3.98,4.01-7.31,4.01-5.42,0-9.27-3.66-9.27-8.78Z"/>
          <path class="cls-5" d="M313.61,184.3c-.96.77-2.4,1.15-3.85,1.15-3.75,0-5.9-1.99-5.9-5.77v-8.24h-2.82v-3.21h2.82v-3.91h4.01v3.91h4.58v3.21h-4.58v8.14c0,1.67.83,2.56,2.37,2.56.83,0,1.63-.22,2.24-.71l1.12,2.85Z"/>
          <path class="cls-3" d="M316.66,163.11c0-1.31.96-2.28,2.28-2.28s2.28.96,2.28,2.28-.96,2.28-2.28,2.28-2.28-.96-2.28-2.28ZM316.91,168.12h4.01v17.12h-4.01v-17.12Z"/>
          <path class="cls-2" d="M324.77,176.67c0-5.13,3.85-8.75,9.11-8.75s9.14,3.62,9.14,8.75-3.82,8.78-9.14,8.78-9.11-3.66-9.11-8.78ZM338.97,176.67c0-3.27-2.18-5.35-5.1-5.35s-5.07,2.08-5.07,5.35,2.18,5.35,5.07,5.35,5.1-2.08,5.1-5.35Z"/>
          <path class="cls-4" d="M363.72,175.42v9.81h-4.01v-9.3c0-3.05-1.51-4.52-4.07-4.52-2.85,0-4.78,1.73-4.78,5.16v8.66h-4.01v-17.12h3.81v2.21c1.31-1.57,3.4-2.4,5.9-2.4,4.1,0,7.15,2.34,7.15,7.5Z"/>
        </g>
        <g>
          <path class="cls-19" d="M37.18,162.79l-7.44,22.44h-4.42l-5.55-16.61-5.64,16.61h-4.46l-7.44-22.44h4.33l5.58,17.06,5.8-17.06h3.85l5.67,17.15,5.74-17.15h3.98Z"/>
          <path class="cls-19" d="M57.54,175.42v9.81h-4.01v-9.3c0-3.05-1.51-4.52-4.07-4.52-2.85,0-4.78,1.73-4.78,5.16v8.66h-4.01v-23.79h4.01v8.66c1.31-1.41,3.33-2.18,5.71-2.18,4.1,0,7.15,2.34,7.15,7.5Z"/>
          <path class="cls-19" d="M62.38,163.11c0-1.31.96-2.28,2.28-2.28s2.28.96,2.28,2.28-.96,2.28-2.28,2.28-2.28-.96-2.28-2.28ZM62.64,168.12h4.01v17.12h-4.01v-17.12Z"/>
          <path class="cls-19" d="M82.2,184.3c-.96.77-2.4,1.15-3.85,1.15-3.75,0-5.9-1.99-5.9-5.77v-8.24h-2.82v-3.21h2.82v-3.91h4.01v3.91h4.58v3.21h-4.58v8.14c0,1.67.83,2.56,2.37,2.56.83,0,1.63-.22,2.24-.71l1.12,2.85Z"/>
          <path class="cls-19" d="M94.73,162.79h4.17v18.92h11.73v3.53h-15.9v-22.44Z"/>
          <path class="cls-19" d="M111.98,176.67c0-5.13,3.85-8.75,9.1-8.75s9.14,3.62,9.14,8.75-3.81,8.78-9.14,8.78-9.1-3.66-9.1-8.78ZM126.18,176.67c0-3.27-2.18-5.35-5.1-5.35s-5.06,2.08-5.06,5.35,2.18,5.35,5.06,5.35,5.1-2.08,5.1-5.35Z"/>
          <path class="cls-19" d="M132.66,176.67c0-5.13,3.85-8.75,9.1-8.75s9.14,3.62,9.14,8.75-3.81,8.78-9.14,8.78-9.1-3.66-9.1-8.78ZM146.86,176.67c0-3.27-2.18-5.35-5.1-5.35s-5.06,2.08-5.06,5.35,2.18,5.35,5.06,5.35,5.1-2.08,5.1-5.35Z"/>
          <path class="cls-19" d="M161.74,177.89l-2.98,2.82v4.52h-4.01v-23.79h4.01v14.36l8.3-7.69h4.81l-7.15,7.18,7.82,9.94h-4.87l-5.93-7.34Z"/>
          <path class="cls-19" d="M203.16,170.78c0,4.94-3.65,7.98-9.55,7.98h-5.07v6.48h-4.17v-22.44h9.23c5.9,0,9.55,3.01,9.55,7.98ZM198.96,170.78c0-2.82-1.89-4.46-5.55-4.46h-4.87v8.91h4.87c3.66,0,5.55-1.64,5.55-4.46Z"/>
          <path class="cls-19" d="M216.69,167.92v3.81c-.35-.06-.64-.1-.93-.1-3.05,0-4.97,1.79-4.97,5.29v8.3h-4.01v-17.12h3.81v2.5c1.15-1.79,3.24-2.69,6.09-2.69Z"/>
          <path class="cls-19" d="M218.52,176.67c0-5.13,3.85-8.75,9.11-8.75s9.14,3.62,9.14,8.75-3.82,8.78-9.14,8.78-9.11-3.66-9.11-8.78ZM232.72,176.67c0-3.27-2.18-5.35-5.1-5.35s-5.07,2.08-5.07,5.35,2.18,5.35,5.07,5.35,5.1-2.08,5.1-5.35Z"/>
          <path class="cls-19" d="M257.37,161.45v23.79h-3.85v-2.21c-1.35,1.63-3.33,2.44-5.67,2.44-4.97,0-8.66-3.46-8.66-8.78s3.69-8.75,8.66-8.75c2.21,0,4.17.74,5.51,2.31v-8.78h4.01ZM253.43,176.67c0-3.27-2.21-5.35-5.1-5.35s-5.1,2.08-5.1,5.35,2.21,5.35,5.1,5.35,5.1-2.08,5.1-5.35Z"/>
          <path class="cls-19" d="M279.21,168.12v17.12h-3.81v-2.18c-1.28,1.57-3.3,2.4-5.51,2.4-4.39,0-7.37-2.4-7.37-7.57v-9.78h4.01v9.23c0,3.11,1.47,4.58,4.01,4.58,2.79,0,4.68-1.73,4.68-5.16v-8.66h4.01Z"/>
          <path class="cls-19" d="M283.06,176.67c0-5.13,3.85-8.75,9.27-8.75,3.33,0,6,1.38,7.31,3.98l-3.08,1.79c-1.03-1.63-2.56-2.37-4.26-2.37-2.95,0-5.19,2.05-5.19,5.35s2.24,5.35,5.19,5.35c1.7,0,3.24-.74,4.26-2.37l3.08,1.79c-1.31,2.57-3.98,4.01-7.31,4.01-5.42,0-9.27-3.66-9.27-8.78Z"/>
          <path class="cls-19" d="M313.61,184.3c-.96.77-2.4,1.15-3.85,1.15-3.75,0-5.9-1.99-5.9-5.77v-8.24h-2.82v-3.21h2.82v-3.91h4.01v3.91h4.58v3.21h-4.58v8.14c0,1.67.83,2.56,2.37,2.56.83,0,1.63-.22,2.24-.71l1.12,2.85Z"/>
          <path class="cls-19" d="M316.66,163.11c0-1.31.96-2.28,2.28-2.28s2.28.96,2.28,2.28-.96,2.28-2.28,2.28-2.28-.96-2.28-2.28ZM316.91,168.12h4.01v17.12h-4.01v-17.12Z"/>
          <path class="cls-19" d="M324.77,176.67c0-5.13,3.85-8.75,9.11-8.75s9.14,3.62,9.14,8.75-3.82,8.78-9.14,8.78-9.11-3.66-9.11-8.78ZM338.97,176.67c0-3.27-2.18-5.35-5.1-5.35s-5.07,2.08-5.07,5.35,2.18,5.35,5.07,5.35,5.1-2.08,5.1-5.35Z"/>
          <path class="cls-19" d="M363.72,175.42v9.81h-4.01v-9.3c0-3.05-1.51-4.52-4.07-4.52-2.85,0-4.78,1.73-4.78,5.16v8.66h-4.01v-17.12h3.81v2.21c1.31-1.57,3.4-2.4,5.9-2.4,4.1,0,7.15,2.34,7.15,7.5Z"/>
        </g>
      </g>
    </g>
  </g>
</svg>