<?xml version="1.0" encoding="UTF-8"?>
<svg id="katman_2" data-name="katman 2" xmlns="http://www.w3.org/2000/svg" viewBox="0 0 301.67 140.65">
  <defs>
    <style>
      .cls-1 {
        fill: #fff;
      }
    </style>
  </defs>
  <g id="katman_1" data-name="katman 1">
    <g>
      <path class="cls-1" d="M21.97,132.01v8.13h-7.55v-8.22l-8.45-14.17h7.97l4.58,7.74,4.61-7.74h7.3l-8.45,14.27Z"/>
      <path class="cls-1" d="M29.52,128.94c0-6.78,5.34-11.71,12.64-11.71s12.64,4.93,12.64,11.71-5.34,11.71-12.64,11.71-12.64-4.93-12.64-11.71ZM35.73,113.35c0-1.7,1.25-2.85,2.88-2.85s2.88,1.15,2.88,2.85-1.25,2.82-2.88,2.82-2.88-1.12-2.88-2.82ZM47.18,128.94c0-3.49-2.24-5.6-5.02-5.6s-5.02,2.11-5.02,5.6,2.24,5.6,5.02,5.6,5.02-2.11,5.02-5.6ZM42.83,113.35c0-1.7,1.25-2.85,2.88-2.85s2.88,1.15,2.88,2.85-1.25,2.82-2.88,2.82-2.88-1.12-2.88-2.82Z"/>
      <path class="cls-1" d="M79.63,117.74v22.4h-6.21l-8.51-10.18v10.18h-7.36v-22.4h6.21l8.51,10.17v-10.17h7.36Z"/>
      <path class="cls-1" d="M101.9,134.44v5.7h-18.62v-22.4h18.21v5.7h-10.78v2.62h9.47v5.44h-9.47v2.94h11.2Z"/>
      <path class="cls-1" d="M109.68,123.59h-6.56v-5.86h20.67v5.86h-6.56v16.54h-7.55v-16.54Z"/>
      <path class="cls-1" d="M125.74,117.74h7.55v22.4h-7.55v-22.4ZM125.87,112.59c0-2.14,1.5-3.65,3.65-3.65s3.65,1.5,3.65,3.65-1.5,3.65-3.65,3.65-3.65-1.5-3.65-3.65Z"/>
      <path class="cls-1" d="M156.94,140.14l-.06-10.21-4.86,8.19h-3.33l-4.86-7.84v9.86h-6.88v-22.4h6.21l7.3,11.93,7.1-11.93h6.21l.06,22.4h-6.88Z"/>
      <path class="cls-1" d="M195.69,125.54c0,4.86-3.52,7.81-9.34,7.81h-5.54v6.78h-3.2v-22.4h8.74c5.82,0,9.34,2.94,9.34,7.81ZM192.49,125.54c0-3.2-2.14-5.02-6.24-5.02h-5.44v10.05h5.44c4.1,0,6.24-1.82,6.24-5.02Z"/>
      <path class="cls-1" d="M213.55,134.54h-11.9l-2.46,5.6h-3.3l10.14-22.4h3.17l10.17,22.4h-3.36l-2.46-5.6ZM212.43,131.98l-4.83-10.98-4.83,10.98h9.66Z"/>
      <path class="cls-1" d="M241.97,117.74v22.4h-2.62l-13.44-16.7v16.7h-3.2v-22.4h2.62l13.44,16.7v-16.7h3.2Z"/>
      <path class="cls-1" d="M264.94,137.35v2.78h-16.25v-22.4h15.81v2.78h-12.61v6.88h11.23v2.72h-11.23v7.23h13.05Z"/>
      <path class="cls-1" d="M270.13,117.74h3.2v19.61h12.13v2.78h-15.33v-22.4Z"/>
      <path class="cls-1" d="M288.85,113.45c0-1.06.83-1.89,1.89-1.89s1.89.83,1.89,1.89-.83,1.89-1.89,1.89-1.89-.8-1.89-1.89ZM289.14,117.74h3.2v22.4h-3.2v-22.4Z"/>
    </g>
    <g>
      <path class="cls-1" d="M215.84,55.4h-.03.03Z"/>
      <path class="cls-1" d="M188.19,77.9c-1.06.46-2.14,2.5-2.4,4.76l-1.05-3.39c.35-.14.7-.28,1.05-.42.81-.32,1.61-.63,2.4-.95Z"/>
      <g>
        <path class="cls-1" d="M30.73,27.53l-9.25,62.88L12.22,27.53H0l11.9,77.1h18.06l11.9-77.1h-11.13Z"/>
        <path class="cls-1" d="M80.5,38.54v-11.01h-33.05v77.1h33.05v-11.02h-20.92v-22.58h16.62v-11.01h-16.62v-21.48h20.92Z"/>
        <path class="cls-1" d="M115.52,27.53v46.15l-12.44-46.15h-15.2v77.1h10.91v-55.84l15.08,55.84h12.44V27.53h-10.8Z"/>
        <path class="cls-1" d="M168.84,84.96c-5.82,3.69-12.54,7.33-12.54,14.29l-.03-.11v5.49h-12.12v-8.51.28c.01-2.51,2.58-4.65,5.6-5.81l-.14.03c1.7-.45,3.41-.91,5.1-1.4.53-.14,1.05-.28,1.56-.43,4.08-1.16,8.09-2.37,12.04-3.67l.53-.15Z"/>
        <path class="cls-1" d="M184.74,79.27l1.05,3.39v-3.81c-.35.14-.7.28-1.05.42Z"/>
        <path class="cls-1" d="M195.62,64.38l-1.03.5s-.03.01-.04.01c-2.91,1.19-5.82,2.29-8.76,3.37-.03.03-.06.03-.08.04-.66.24-1.31.47-1.97.71-4.05,1.28-9.44-.45-10.07-4.85V27.53h12.12v33.62c.63,4.39,5.22,4.9,9.83,3.23Z"/>
        <path class="cls-1" d="M213.22,66.18c-2.07,1.17-3.25,3.77-3.42,5.98v14.08c0,12.33-6.17,19.39-18.06,19.39-11.1,0-17.22-6.13-17.99-16.98l.03.17c0-3.39,2-6.22,5.22-7.36l-.82.29c2.22-.81,4.4-1.63,6.56-2.47l1.05,3.39v4.34c0,5.5,2.42,7.49,6.27,7.49s6.29-1.98,6.29-7.49v-10.14c0-1.93,1.27-3.72,3.53-4.96l-.63.28c2.88-1.34,5.73-2.75,8.53-4.2h.01s3.42-1.8,3.42-1.8Z"/>
        <path class="cls-1" d="M215.81,55.41c-.35.17-.7.35-1.06.52-1.49.73-2.99,1.44-4.5,2.14l-.46.22c-.06.03-.1.06-.15.07-1.09.52-2.18,1.02-3.27,1.48l-.21.1-.08.04c-.15.07-.31.13-.46.2-3.14,1.27-6.8,1.16-7.28-1.09v-31.55h11.45v26.62-.28c.01,2.49,3.59,1.98,6.02,1.54Z"/>
        <path class="cls-1" d="M258.5,30.81l-5.94,3.85c-.13.08-.25.15-.38.24l-.8.52h0c-3.32,2.1-6.66,4.15-10.03,6.13-.92-2.07-2.67-3.02-5.36-3.02h-5.84v5.19c0,.13.03.27.1.37,1.02,1.55,4.75.87,6.72,0,.03-.01.06-.03.08-.04.15-.07.31-.14.43-.21l-3.25,1.82c-.92.52-1.83,1.02-2.75,1.54l-1.33.74c-.06.03-.11.06-.17.1-1.79.98-3.55,1.93-5.35,2.88l-.04.03-.07.03c-2.84,1.33-6.19.52-6.48-2.57v-20.88h18.28c5.94,0,10.29,1.3,13.21,3.95,1.96,1.63,6.06,1.19,8.95-.67Z"/>
        <path class="cls-1" d="M254.39,95.26c0,3.74.11,6.51,1.33,9.37h-12.33c-.67-1.98-1.1-3.2-1.1-9.47v-12.12c0-7.16-2.43-9.8-7.93-9.8h-4.19v31.4h-12.11v-35.13c.13-3.3,2.12-6.84,5.77-9.43.04-.03.1-.06.14-.1,2.07-1.23,4.09-2.51,6.1-3.83.03-.03.07-.04.1-.07l1.89-1.26c-1.22.81-1.96,1.73-1.87,2.77v-.18s-.01,4.82-.01,4.82h4.75c4.51,0,7.26-1.98,7.26-8.16v-2.68c.29-2.88,1.68-5.14,4.44-7.35l-1.12.88c2.6-2.07,5.14-4.2,7.6-6.4.11-.1.24-.21.35-.32,0,0,.01,0,.01.01l9.34-8.06c-3.04,3.34-8.3,9.72-8.56,13.6v.04c.03.47.04.96.04,1.45v6.06c0,7.93-2.53,13.1-7.92,15.64,6.05,2.53,8.03,8.37,8.03,16.41v11.89Z"/>
        <path class="cls-1" d="M289.33,28.58h-.54l-.2,1.57c-.16,1.29-.84,2.47-1.87,3.26l-4.39,3.35-1.1-8.17h-9.64l-12.33,77.1h11.12l2.1-13.99h14.87l2.1,13.99h12.22l-12.33-77.1ZM274.03,81.22l5.84-38.99,5.84,38.99h-11.68Z"/>
      </g>
      <path class="cls-1" d="M169.43,73.71c-.06.01-.11.04-.17.04l-12.84,3.49s-.1.03-.15.04l-.15.04h0c-.38.08-.75.18-1.13.27-5.57,1.19-10.36-.57-10.84-6.1v-32.95h-12.65v-11.01h37.44v11.01h-12.67v29.33c.46,5.57,9.46,6.58,13.16,5.84Z"/>
      <path class="cls-1" d="M215.83,55.4h.01-.03.01Z"/>
      <path class="cls-1" d="M283.18,34.52c-.74-5.54-1.45-10.78-2.18-16.24-.54.42-.98.75-1.4,1.1-3.21,2.64-6.73,4.74-10.67,6.11-1.34.46-2.53.42-3.76-.4-2.37-1.58-4.8-3.05-7.22-4.57.93-1.17,1.96-1.54,3.35-1.34,1.92.28,3.87.37,5.82.43.58.02,1.43-.27,1.89-.64,6.89-5.56,13.75-11.17,20.6-16.77,1.89-1.54,4.04-2.28,6.45-2.18,1.93.08,2.92,1.63,2.06,3.35-.49.98-1.26,1.88-2.09,2.61-2.02,1.77-4.14,3.42-6.24,5.09-.58.46-.88.95-.96,1.73-.58,5.76-1.26,11.52-1.83,17.28-.12,1.18-.8,2.2-1.78,2.87-.62.42-1.2.94-2.02,1.58Z"/>
    </g>
  </g>
</svg>